<mxfile host="app.diagrams.net" agent="Mozilla/5.0 (Windows NT 10.0; Win64; x64) AppleWebKit/537.36 (KHTML, like Gecko) Chrome/136.0.0.0 Safari/537.36" version="27.0.6">
  <diagram name="페이지-1" id="Nom8Wz4Z554hDFT4SZuL">
    <mxGraphModel dx="868" dy="827" grid="1" gridSize="10" guides="1" tooltips="1" connect="1" arrows="1" fold="1" page="1" pageScale="1" pageWidth="827" pageHeight="1169" math="0" shadow="0">
      <root>
        <mxCell id="0" />
        <mxCell id="1" parent="0" />
        <mxCell id="SnVRGUVNPOQiEE2IRUjc-219" value="Join" style="shape=umlFrame;whiteSpace=wrap;html=1;pointerEvents=0;width=70;height=30;" parent="1" vertex="1">
          <mxGeometry x="441" y="600" width="780" height="470" as="geometry" />
        </mxCell>
        <mxCell id="SnVRGUVNPOQiEE2IRUjc-220" value=":Guest" style="shape=umlActor;verticalLabelPosition=bottom;verticalAlign=top;html=1;" parent="1" vertex="1">
          <mxGeometry x="531" y="691" width="30" height="60" as="geometry" />
        </mxCell>
        <mxCell id="SnVRGUVNPOQiEE2IRUjc-221" value=":JoinUI" style="shape=umlBoundary;whiteSpace=wrap;html=1;" parent="1" vertex="1">
          <mxGeometry x="684" y="666.5" width="136" height="109" as="geometry" />
        </mxCell>
        <mxCell id="SnVRGUVNPOQiEE2IRUjc-222" value=":Join" style="ellipse;shape=umlControl;whiteSpace=wrap;html=1;" parent="1" vertex="1">
          <mxGeometry x="945.38" y="658" width="116" height="126" as="geometry" />
        </mxCell>
        <mxCell id="SnVRGUVNPOQiEE2IRUjc-223" value="Register bike" style="shape=umlFrame;whiteSpace=wrap;html=1;pointerEvents=0;width=90;height=30;" parent="1" vertex="1">
          <mxGeometry x="441" y="1138" width="780" height="470" as="geometry" />
        </mxCell>
        <mxCell id="SnVRGUVNPOQiEE2IRUjc-224" value=":Admin" style="shape=umlActor;verticalLabelPosition=bottom;verticalAlign=top;html=1;" parent="1" vertex="1">
          <mxGeometry x="531" y="1243" width="30" height="60" as="geometry" />
        </mxCell>
        <mxCell id="SnVRGUVNPOQiEE2IRUjc-225" value="" style="line;strokeWidth=1;fillColor=none;align=left;verticalAlign=middle;spacingTop=-1;spacingLeft=3;spacingRight=3;rotatable=0;labelPosition=right;points=[];portConstraint=eastwest;strokeColor=inherit;" parent="1" vertex="1">
          <mxGeometry x="571" y="1264" width="90" height="8" as="geometry" />
        </mxCell>
        <mxCell id="SnVRGUVNPOQiEE2IRUjc-226" value=":RegisterBikeUI" style="shape=umlBoundary;whiteSpace=wrap;html=1;" parent="1" vertex="1">
          <mxGeometry x="671" y="1220" width="113" height="98" as="geometry" />
        </mxCell>
        <mxCell id="SnVRGUVNPOQiEE2IRUjc-227" value=":RegisterBike" style="ellipse;shape=umlControl;whiteSpace=wrap;html=1;" parent="1" vertex="1">
          <mxGeometry x="950.5" y="1217" width="93.5" height="104" as="geometry" />
        </mxCell>
        <mxCell id="SnVRGUVNPOQiEE2IRUjc-228" value="2: inputUserInfo()" style="html=1;verticalAlign=bottom;endArrow=block;curved=0;rounded=0;" parent="1" edge="1">
          <mxGeometry x="0.025" y="6" width="80" relative="1" as="geometry">
            <mxPoint x="581" y="705" as="sourcePoint" />
            <mxPoint x="661" y="705" as="targetPoint" />
            <mxPoint as="offset" />
          </mxGeometry>
        </mxCell>
        <mxCell id="SnVRGUVNPOQiEE2IRUjc-229" value="2.1: registerBike()" style="html=1;verticalAlign=bottom;endArrow=block;curved=0;rounded=0;" parent="1" edge="1">
          <mxGeometry x="-0.1053" y="20" width="80" relative="1" as="geometry">
            <mxPoint x="821" y="1248" as="sourcePoint" />
            <mxPoint x="901" y="1248" as="targetPoint" />
            <mxPoint as="offset" />
          </mxGeometry>
        </mxCell>
        <mxCell id="SnVRGUVNPOQiEE2IRUjc-230" value="Login" style="shape=umlFrame;whiteSpace=wrap;html=1;pointerEvents=0;" parent="1" vertex="1">
          <mxGeometry x="1258" y="600" width="783" height="470" as="geometry" />
        </mxCell>
        <mxCell id="SnVRGUVNPOQiEE2IRUjc-231" value=":User" style="shape=umlActor;verticalLabelPosition=bottom;verticalAlign=top;html=1;" parent="1" vertex="1">
          <mxGeometry x="1331" y="705" width="30" height="60" as="geometry" />
        </mxCell>
        <mxCell id="SnVRGUVNPOQiEE2IRUjc-232" value="" style="line;strokeWidth=1;fillColor=none;align=left;verticalAlign=middle;spacingTop=-1;spacingLeft=3;spacingRight=3;rotatable=0;labelPosition=right;points=[];portConstraint=eastwest;strokeColor=inherit;" parent="1" vertex="1">
          <mxGeometry x="1371" y="731" width="90" height="8" as="geometry" />
        </mxCell>
        <mxCell id="SnVRGUVNPOQiEE2IRUjc-233" value=":LoginUI" style="shape=umlBoundary;whiteSpace=wrap;html=1;" parent="1" vertex="1">
          <mxGeometry x="1471" y="690" width="120" height="90" as="geometry" />
        </mxCell>
        <mxCell id="SnVRGUVNPOQiEE2IRUjc-234" value=":Login" style="ellipse;shape=umlControl;whiteSpace=wrap;html=1;" parent="1" vertex="1">
          <mxGeometry x="1723.63" y="690" width="85" height="90" as="geometry" />
        </mxCell>
        <mxCell id="SnVRGUVNPOQiEE2IRUjc-235" value="2: inputLoginInfo()" style="html=1;verticalAlign=bottom;endArrow=block;curved=0;rounded=0;" parent="1" edge="1">
          <mxGeometry x="0.075" y="10" width="80" relative="1" as="geometry">
            <mxPoint x="1371" y="720" as="sourcePoint" />
            <mxPoint x="1451" y="720" as="targetPoint" />
            <mxPoint as="offset" />
          </mxGeometry>
        </mxCell>
        <mxCell id="SnVRGUVNPOQiEE2IRUjc-236" value="2.1: login()" style="html=1;verticalAlign=bottom;endArrow=block;curved=0;rounded=0;" parent="1" edge="1">
          <mxGeometry width="80" relative="1" as="geometry">
            <mxPoint x="1615" y="710" as="sourcePoint" />
            <mxPoint x="1695" y="710" as="targetPoint" />
          </mxGeometry>
        </mxCell>
        <mxCell id="SnVRGUVNPOQiEE2IRUjc-238" value="newBike:Bike" style="ellipse;shape=umlEntity;whiteSpace=wrap;html=1;" parent="1" vertex="1">
          <mxGeometry x="950.5" y="1450" width="92.75" height="92" as="geometry" />
        </mxCell>
        <mxCell id="SnVRGUVNPOQiEE2IRUjc-239" value="2.1: join()" style="html=1;verticalAlign=bottom;endArrow=block;curved=0;rounded=0;" parent="1" edge="1">
          <mxGeometry x="-0.15" y="13" width="80" relative="1" as="geometry">
            <mxPoint x="840" y="705" as="sourcePoint" />
            <mxPoint x="920" y="705" as="targetPoint" />
            <mxPoint as="offset" />
          </mxGeometry>
        </mxCell>
        <mxCell id="SnVRGUVNPOQiEE2IRUjc-240" value="1: startInterface()" style="html=1;verticalAlign=bottom;endArrow=block;curved=0;rounded=0;" parent="1" edge="1">
          <mxGeometry x="-0.075" y="22" width="80" relative="1" as="geometry">
            <mxPoint x="901" y="1290" as="sourcePoint" />
            <mxPoint x="821" y="1290" as="targetPoint" />
            <mxPoint as="offset" />
          </mxGeometry>
        </mxCell>
        <mxCell id="SnVRGUVNPOQiEE2IRUjc-241" value="2: inputBikeInfo()" style="html=1;verticalAlign=bottom;endArrow=block;curved=0;rounded=0;" parent="1" edge="1">
          <mxGeometry x="-0.125" y="20" width="80" relative="1" as="geometry">
            <mxPoint x="576" y="1248" as="sourcePoint" />
            <mxPoint x="656" y="1248" as="targetPoint" />
            <mxPoint as="offset" />
          </mxGeometry>
        </mxCell>
        <mxCell id="SnVRGUVNPOQiEE2IRUjc-242" value="1: startInterface()" style="html=1;verticalAlign=bottom;endArrow=block;curved=0;rounded=0;" parent="1" edge="1">
          <mxGeometry x="0.05" y="21" width="80" relative="1" as="geometry">
            <mxPoint x="1694.5" y="760" as="sourcePoint" />
            <mxPoint x="1614.5" y="760" as="targetPoint" />
            <mxPoint as="offset" />
          </mxGeometry>
        </mxCell>
        <mxCell id="SnVRGUVNPOQiEE2IRUjc-243" value="Rent bike" style="shape=umlFrame;whiteSpace=wrap;html=1;pointerEvents=0;width=90;height=30;" parent="1" vertex="1">
          <mxGeometry x="1261" y="1138" width="780" height="470" as="geometry" />
        </mxCell>
        <mxCell id="SnVRGUVNPOQiEE2IRUjc-244" value=":Member" style="shape=umlActor;verticalLabelPosition=bottom;verticalAlign=top;html=1;" parent="1" vertex="1">
          <mxGeometry x="1321" y="1243" width="30" height="60" as="geometry" />
        </mxCell>
        <mxCell id="SnVRGUVNPOQiEE2IRUjc-245" value="" style="line;strokeWidth=1;fillColor=none;align=left;verticalAlign=middle;spacingTop=-1;spacingLeft=3;spacingRight=3;rotatable=0;labelPosition=right;points=[];portConstraint=eastwest;strokeColor=inherit;" parent="1" vertex="1">
          <mxGeometry x="1361" y="1269" width="90" height="8" as="geometry" />
        </mxCell>
        <mxCell id="SnVRGUVNPOQiEE2IRUjc-246" value=":RentBikeUI" style="shape=umlBoundary;whiteSpace=wrap;html=1;" parent="1" vertex="1">
          <mxGeometry x="1461" y="1230" width="109" height="88" as="geometry" />
        </mxCell>
        <mxCell id="SnVRGUVNPOQiEE2IRUjc-247" value=":RentBike" style="ellipse;shape=umlControl;whiteSpace=wrap;html=1;" parent="1" vertex="1">
          <mxGeometry x="1711" y="1228" width="85" height="90" as="geometry" />
        </mxCell>
        <mxCell id="SnVRGUVNPOQiEE2IRUjc-248" value="2.1: rentBike()" style="html=1;verticalAlign=bottom;endArrow=block;curved=0;rounded=0;" parent="1" edge="1">
          <mxGeometry x="0.075" y="8" width="80" relative="1" as="geometry">
            <mxPoint x="1611" y="1248" as="sourcePoint" />
            <mxPoint x="1691" y="1248" as="targetPoint" />
            <mxPoint as="offset" />
          </mxGeometry>
        </mxCell>
        <mxCell id="SnVRGUVNPOQiEE2IRUjc-249" value="1: startInterface()" style="html=1;verticalAlign=bottom;endArrow=block;curved=0;rounded=0;" parent="1" edge="1">
          <mxGeometry x="-0.075" y="22" width="80" relative="1" as="geometry">
            <mxPoint x="1689.5" y="1300" as="sourcePoint" />
            <mxPoint x="1609.5" y="1300" as="targetPoint" />
            <mxPoint as="offset" />
          </mxGeometry>
        </mxCell>
        <mxCell id="SnVRGUVNPOQiEE2IRUjc-250" value="2: inputRentBikeInfo()" style="html=1;verticalAlign=bottom;endArrow=block;curved=0;rounded=0;" parent="1" edge="1">
          <mxGeometry x="-0.15" y="8" width="80" relative="1" as="geometry">
            <mxPoint x="1366" y="1253" as="sourcePoint" />
            <mxPoint x="1446" y="1253" as="targetPoint" />
            <mxPoint as="offset" />
          </mxGeometry>
        </mxCell>
        <mxCell id="SnVRGUVNPOQiEE2IRUjc-251" value="" style="endArrow=none;html=1;rounded=0;" parent="1" source="SnVRGUVNPOQiEE2IRUjc-238" target="SnVRGUVNPOQiEE2IRUjc-227" edge="1">
          <mxGeometry width="50" height="50" relative="1" as="geometry">
            <mxPoint x="904" y="1398" as="sourcePoint" />
            <mxPoint x="954" y="1348" as="targetPoint" />
          </mxGeometry>
        </mxCell>
        <mxCell id="SnVRGUVNPOQiEE2IRUjc-254" value="" style="endArrow=none;html=1;rounded=0;" parent="1" source="SnVRGUVNPOQiEE2IRUjc-226" target="SnVRGUVNPOQiEE2IRUjc-227" edge="1">
          <mxGeometry width="50" height="50" relative="1" as="geometry">
            <mxPoint x="793" y="1278" as="sourcePoint" />
            <mxPoint x="954" y="1348" as="targetPoint" />
          </mxGeometry>
        </mxCell>
        <mxCell id="SnVRGUVNPOQiEE2IRUjc-256" value="2.1.1: Member()" style="html=1;verticalAlign=bottom;endArrow=block;curved=0;rounded=0;" parent="1" edge="1">
          <mxGeometry x="0.1429" y="50" width="80" relative="1" as="geometry">
            <mxPoint x="1018" y="810" as="sourcePoint" />
            <mxPoint x="1018" y="880" as="targetPoint" />
            <Array as="points">
              <mxPoint x="1018" y="810" />
            </Array>
            <mxPoint as="offset" />
          </mxGeometry>
        </mxCell>
        <mxCell id="SnVRGUVNPOQiEE2IRUjc-257" value="" style="endArrow=none;html=1;rounded=0;" parent="1" source="SnVRGUVNPOQiEE2IRUjc-281" target="SnVRGUVNPOQiEE2IRUjc-222" edge="1">
          <mxGeometry width="50" height="50" relative="1" as="geometry">
            <mxPoint x="1013.9689809956578" y="915.0328254071901" as="sourcePoint" />
            <mxPoint x="983" y="752" as="targetPoint" />
          </mxGeometry>
        </mxCell>
        <mxCell id="SnVRGUVNPOQiEE2IRUjc-261" value="Logout" style="shape=umlFrame;whiteSpace=wrap;html=1;pointerEvents=0;width=90;height=30;" parent="1" vertex="1">
          <mxGeometry x="441" y="1670" width="780" height="470" as="geometry" />
        </mxCell>
        <mxCell id="SnVRGUVNPOQiEE2IRUjc-262" value=":User" style="shape=umlActor;verticalLabelPosition=bottom;verticalAlign=top;html=1;" parent="1" vertex="1">
          <mxGeometry x="501" y="1775" width="30" height="60" as="geometry" />
        </mxCell>
        <mxCell id="SnVRGUVNPOQiEE2IRUjc-263" value="" style="line;strokeWidth=1;fillColor=none;align=left;verticalAlign=middle;spacingTop=-1;spacingLeft=3;spacingRight=3;rotatable=0;labelPosition=right;points=[];portConstraint=eastwest;strokeColor=inherit;" parent="1" vertex="1">
          <mxGeometry x="541" y="1801" width="90" height="8" as="geometry" />
        </mxCell>
        <mxCell id="SnVRGUVNPOQiEE2IRUjc-264" value=":LogoutUI" style="shape=umlBoundary;whiteSpace=wrap;html=1;" parent="1" vertex="1">
          <mxGeometry x="641" y="1760" width="113" height="90" as="geometry" />
        </mxCell>
        <mxCell id="SnVRGUVNPOQiEE2IRUjc-265" value=":Logout" style="ellipse;shape=umlControl;whiteSpace=wrap;html=1;" parent="1" vertex="1">
          <mxGeometry x="894" y="1750" width="85" height="90" as="geometry" />
        </mxCell>
        <mxCell id="SnVRGUVNPOQiEE2IRUjc-266" value="2.1: logout()" style="html=1;verticalAlign=bottom;endArrow=block;curved=0;rounded=0;" parent="1" edge="1">
          <mxGeometry x="-0.1053" y="20" width="80" relative="1" as="geometry">
            <mxPoint x="791" y="1780" as="sourcePoint" />
            <mxPoint x="871" y="1780" as="targetPoint" />
            <mxPoint as="offset" />
          </mxGeometry>
        </mxCell>
        <mxCell id="SnVRGUVNPOQiEE2IRUjc-267" value="1: startInterface()" style="html=1;verticalAlign=bottom;endArrow=block;curved=0;rounded=0;" parent="1" edge="1">
          <mxGeometry x="-0.075" y="20" width="80" relative="1" as="geometry">
            <mxPoint x="871.5" y="1834.43" as="sourcePoint" />
            <mxPoint x="791.5" y="1834.43" as="targetPoint" />
            <mxPoint as="offset" />
          </mxGeometry>
        </mxCell>
        <mxCell id="SnVRGUVNPOQiEE2IRUjc-268" value="2: requestLogout()" style="html=1;verticalAlign=bottom;endArrow=block;curved=0;rounded=0;" parent="1" edge="1">
          <mxGeometry x="-0.15" y="10" width="80" relative="1" as="geometry">
            <mxPoint x="546" y="1790" as="sourcePoint" />
            <mxPoint x="626" y="1790" as="targetPoint" />
            <mxPoint as="offset" />
          </mxGeometry>
        </mxCell>
        <mxCell id="SnVRGUVNPOQiEE2IRUjc-269" value="Show rented bike list" style="shape=umlFrame;whiteSpace=wrap;html=1;pointerEvents=0;width=133;height=30;" parent="1" vertex="1">
          <mxGeometry x="1261" y="1670" width="780" height="470" as="geometry" />
        </mxCell>
        <mxCell id="SnVRGUVNPOQiEE2IRUjc-270" value=":Member" style="shape=umlActor;verticalLabelPosition=bottom;verticalAlign=top;html=1;" parent="1" vertex="1">
          <mxGeometry x="1320" y="1775" width="30" height="60" as="geometry" />
        </mxCell>
        <mxCell id="SnVRGUVNPOQiEE2IRUjc-271" value="" style="line;strokeWidth=1;fillColor=none;align=left;verticalAlign=middle;spacingTop=-1;spacingLeft=3;spacingRight=3;rotatable=0;labelPosition=right;points=[];portConstraint=eastwest;strokeColor=inherit;" parent="1" vertex="1">
          <mxGeometry x="1361" y="1796" width="90" height="8" as="geometry" />
        </mxCell>
        <mxCell id="SnVRGUVNPOQiEE2IRUjc-272" value=":RentedBikesUI" style="shape=umlBoundary;whiteSpace=wrap;html=1;" parent="1" vertex="1">
          <mxGeometry x="1461" y="1750" width="119" height="100" as="geometry" />
        </mxCell>
        <mxCell id="SnVRGUVNPOQiEE2IRUjc-273" value=":RentedBikes" style="ellipse;shape=umlControl;whiteSpace=wrap;html=1;" parent="1" vertex="1">
          <mxGeometry x="1708.5" y="1750" width="91.5" height="100" as="geometry" />
        </mxCell>
        <mxCell id="SnVRGUVNPOQiEE2IRUjc-274" value="2.1: showRentedBikes()" style="html=1;verticalAlign=bottom;endArrow=block;curved=0;rounded=0;" parent="1" edge="1">
          <mxGeometry x="-0.1" y="20" width="80" relative="1" as="geometry">
            <mxPoint x="1611" y="1780" as="sourcePoint" />
            <mxPoint x="1691" y="1780" as="targetPoint" />
            <mxPoint as="offset" />
          </mxGeometry>
        </mxCell>
        <mxCell id="SnVRGUVNPOQiEE2IRUjc-275" value="1: startInterface()" style="html=1;verticalAlign=bottom;endArrow=block;curved=0;rounded=0;" parent="1" edge="1">
          <mxGeometry x="-0.075" y="20" width="80" relative="1" as="geometry">
            <mxPoint x="1689.5" y="1835" as="sourcePoint" />
            <mxPoint x="1609.5" y="1835" as="targetPoint" />
            <mxPoint as="offset" />
          </mxGeometry>
        </mxCell>
        <mxCell id="SnVRGUVNPOQiEE2IRUjc-276" value="2: requestRentedBikes()" style="html=1;verticalAlign=bottom;endArrow=block;curved=0;rounded=0;" parent="1" edge="1">
          <mxGeometry x="-0.15" y="10" width="80" relative="1" as="geometry">
            <mxPoint x="1366" y="1780" as="sourcePoint" />
            <mxPoint x="1446" y="1780" as="targetPoint" />
            <mxPoint as="offset" />
          </mxGeometry>
        </mxCell>
        <mxCell id="SnVRGUVNPOQiEE2IRUjc-277" value="" style="endArrow=none;html=1;rounded=0;entryX=0.006;entryY=0.612;entryDx=0;entryDy=0;entryPerimeter=0;" parent="1" source="SnVRGUVNPOQiEE2IRUjc-264" target="SnVRGUVNPOQiEE2IRUjc-265" edge="1">
          <mxGeometry width="50" height="50" relative="1" as="geometry">
            <mxPoint x="763" y="1810" as="sourcePoint" />
            <mxPoint x="924" y="1880" as="targetPoint" />
          </mxGeometry>
        </mxCell>
        <mxCell id="SnVRGUVNPOQiEE2IRUjc-278" value=":Bike" style="ellipse;shape=umlEntity;whiteSpace=wrap;html=1;" parent="1" vertex="1">
          <mxGeometry x="1880" y="1460" width="90" height="90" as="geometry" />
        </mxCell>
        <mxCell id="SnVRGUVNPOQiEE2IRUjc-281" value=":newMember:Memb&lt;span style=&quot;background-color: transparent; color: light-dark(rgb(0, 0, 0), rgb(255, 255, 255));&quot;&gt;er&lt;/span&gt;" style="ellipse;shape=umlEntity;whiteSpace=wrap;html=1;" parent="1" vertex="1">
          <mxGeometry x="939.25" y="917" width="128.25" height="120" as="geometry" />
        </mxCell>
        <mxCell id="SnVRGUVNPOQiEE2IRUjc-282" value="1: startInterface()" style="html=1;verticalAlign=bottom;endArrow=block;curved=0;rounded=0;" parent="1" edge="1">
          <mxGeometry x="0.05" y="26" width="80" relative="1" as="geometry">
            <mxPoint x="920" y="740" as="sourcePoint" />
            <mxPoint x="840" y="740" as="targetPoint" />
            <mxPoint as="offset" />
          </mxGeometry>
        </mxCell>
        <mxCell id="SnVRGUVNPOQiEE2IRUjc-283" value="" style="endArrow=none;html=1;rounded=0;" parent="1" source="SnVRGUVNPOQiEE2IRUjc-221" target="SnVRGUVNPOQiEE2IRUjc-222" edge="1">
          <mxGeometry width="50" height="50" relative="1" as="geometry">
            <mxPoint x="824" y="951" as="sourcePoint" />
            <mxPoint x="874" y="901" as="targetPoint" />
          </mxGeometry>
        </mxCell>
        <mxCell id="SnVRGUVNPOQiEE2IRUjc-284" value="" style="endArrow=none;html=1;rounded=0;" parent="1" edge="1">
          <mxGeometry width="50" height="50" relative="1" as="geometry">
            <mxPoint x="570" y="721" as="sourcePoint" />
            <mxPoint x="673" y="721" as="targetPoint" />
          </mxGeometry>
        </mxCell>
        <mxCell id="SnVRGUVNPOQiEE2IRUjc-285" value="" style="endArrow=none;html=1;rounded=0;" parent="1" source="SnVRGUVNPOQiEE2IRUjc-233" target="SnVRGUVNPOQiEE2IRUjc-234" edge="1">
          <mxGeometry width="50" height="50" relative="1" as="geometry">
            <mxPoint x="1614" y="1030" as="sourcePoint" />
            <mxPoint x="1664" y="980" as="targetPoint" />
          </mxGeometry>
        </mxCell>
        <mxCell id="SnVRGUVNPOQiEE2IRUjc-286" value="" style="endArrow=none;html=1;rounded=0;" parent="1" source="SnVRGUVNPOQiEE2IRUjc-246" target="SnVRGUVNPOQiEE2IRUjc-247" edge="1">
          <mxGeometry width="50" height="50" relative="1" as="geometry">
            <mxPoint x="1614" y="1170" as="sourcePoint" />
            <mxPoint x="1664" y="1120" as="targetPoint" />
          </mxGeometry>
        </mxCell>
        <mxCell id="SnVRGUVNPOQiEE2IRUjc-287" value="" style="endArrow=none;html=1;rounded=0;" parent="1" source="SnVRGUVNPOQiEE2IRUjc-272" target="SnVRGUVNPOQiEE2IRUjc-273" edge="1">
          <mxGeometry width="50" height="50" relative="1" as="geometry">
            <mxPoint x="1614" y="1760" as="sourcePoint" />
            <mxPoint x="1664" y="1710" as="targetPoint" />
          </mxGeometry>
        </mxCell>
        <mxCell id="SnVRGUVNPOQiEE2IRUjc-289" value=":User" style="ellipse;shape=umlEntity;whiteSpace=wrap;html=1;" parent="1" vertex="1">
          <mxGeometry x="1718.63" y="934" width="90" height="86" as="geometry" />
        </mxCell>
        <mxCell id="SnVRGUVNPOQiEE2IRUjc-291" value="" style="endArrow=none;html=1;rounded=0;" parent="1" source="SnVRGUVNPOQiEE2IRUjc-289" target="SnVRGUVNPOQiEE2IRUjc-234" edge="1">
          <mxGeometry width="50" height="50" relative="1" as="geometry">
            <mxPoint x="1766.13" y="934" as="sourcePoint" />
            <mxPoint x="1752.13" y="780" as="targetPoint" />
          </mxGeometry>
        </mxCell>
        <mxCell id="SnVRGUVNPOQiEE2IRUjc-293" value="2.1.1: getUserDetails()" style="html=1;verticalAlign=bottom;endArrow=block;curved=0;rounded=0;" parent="1" edge="1">
          <mxGeometry x="0.25" y="-68" width="80" relative="1" as="geometry">
            <mxPoint x="1747.97" y="830" as="sourcePoint" />
            <mxPoint x="1747.97" y="910" as="targetPoint" />
            <Array as="points">
              <mxPoint x="1747.97" y="830" />
            </Array>
            <mxPoint as="offset" />
          </mxGeometry>
        </mxCell>
        <mxCell id="SnVRGUVNPOQiEE2IRUjc-297" value="" style="endArrow=none;html=1;rounded=0;" parent="1" source="SnVRGUVNPOQiEE2IRUjc-298" target="SnVRGUVNPOQiEE2IRUjc-273" edge="1">
          <mxGeometry width="50" height="50" relative="1" as="geometry">
            <mxPoint x="1675" y="1905" as="sourcePoint" />
            <mxPoint x="1737" y="1850" as="targetPoint" />
          </mxGeometry>
        </mxCell>
        <mxCell id="SnVRGUVNPOQiEE2IRUjc-298" value=":Member" style="ellipse;shape=umlEntity;whiteSpace=wrap;html=1;" parent="1" vertex="1">
          <mxGeometry x="1703.5" y="2010" width="96.5" height="90" as="geometry" />
        </mxCell>
        <mxCell id="SnVRGUVNPOQiEE2IRUjc-299" value="2.1.1: listBikes()" style="html=1;verticalAlign=bottom;endArrow=block;curved=0;rounded=0;" parent="1" edge="1">
          <mxGeometry x="0.2505" y="-50" width="80" relative="1" as="geometry">
            <mxPoint x="1740.03" y="1887" as="sourcePoint" />
            <mxPoint x="1740" y="1967" as="targetPoint" />
            <Array as="points" />
            <mxPoint as="offset" />
          </mxGeometry>
        </mxCell>
        <mxCell id="SnVRGUVNPOQiEE2IRUjc-303" value="Exit" style="shape=umlFrame;whiteSpace=wrap;html=1;pointerEvents=0;width=90;height=30;" parent="1" vertex="1">
          <mxGeometry x="444" y="2210" width="780" height="470" as="geometry" />
        </mxCell>
        <mxCell id="SnVRGUVNPOQiEE2IRUjc-304" value=":User" style="shape=umlActor;verticalLabelPosition=bottom;verticalAlign=top;html=1;" parent="1" vertex="1">
          <mxGeometry x="531" y="2325" width="30" height="60" as="geometry" />
        </mxCell>
        <mxCell id="SnVRGUVNPOQiEE2IRUjc-305" value="" style="line;strokeWidth=1;fillColor=none;align=left;verticalAlign=middle;spacingTop=-1;spacingLeft=3;spacingRight=3;rotatable=0;labelPosition=right;points=[];portConstraint=eastwest;strokeColor=inherit;" parent="1" vertex="1">
          <mxGeometry x="588" y="2361" width="90" height="8" as="geometry" />
        </mxCell>
        <mxCell id="SnVRGUVNPOQiEE2IRUjc-306" value=":ExitUI" style="shape=umlBoundary;whiteSpace=wrap;html=1;" parent="1" vertex="1">
          <mxGeometry x="688" y="2322.83" width="100" height="84.33" as="geometry" />
        </mxCell>
        <mxCell id="SnVRGUVNPOQiEE2IRUjc-307" value=":Exit" style="ellipse;shape=umlControl;whiteSpace=wrap;html=1;" parent="1" vertex="1">
          <mxGeometry x="960" y="2320" width="85" height="90" as="geometry" />
        </mxCell>
        <mxCell id="SnVRGUVNPOQiEE2IRUjc-308" value="2.1: exit()" style="html=1;verticalAlign=bottom;endArrow=block;curved=0;rounded=0;" parent="1" edge="1">
          <mxGeometry x="-0.1034" y="20" width="80" relative="1" as="geometry">
            <mxPoint x="840" y="2334.33" as="sourcePoint" />
            <mxPoint x="920" y="2334.33" as="targetPoint" />
            <mxPoint as="offset" />
          </mxGeometry>
        </mxCell>
        <mxCell id="SnVRGUVNPOQiEE2IRUjc-309" value="1: startInterface()" style="html=1;verticalAlign=bottom;endArrow=block;curved=0;rounded=0;" parent="1" edge="1">
          <mxGeometry y="26" width="80" relative="1" as="geometry">
            <mxPoint x="920" y="2404.33" as="sourcePoint" />
            <mxPoint x="840" y="2404.33" as="targetPoint" />
            <mxPoint as="offset" />
          </mxGeometry>
        </mxCell>
        <mxCell id="SnVRGUVNPOQiEE2IRUjc-310" value="2: requestExit()" style="html=1;verticalAlign=bottom;endArrow=block;curved=0;rounded=0;" parent="1" edge="1">
          <mxGeometry x="-0.2" y="4" width="80" relative="1" as="geometry">
            <mxPoint x="588" y="2347" as="sourcePoint" />
            <mxPoint x="668" y="2347" as="targetPoint" />
            <mxPoint as="offset" />
          </mxGeometry>
        </mxCell>
        <mxCell id="SnVRGUVNPOQiEE2IRUjc-311" value="" style="endArrow=none;html=1;rounded=0;" parent="1" source="SnVRGUVNPOQiEE2IRUjc-306" target="SnVRGUVNPOQiEE2IRUjc-307" edge="1">
          <mxGeometry width="50" height="50" relative="1" as="geometry">
            <mxPoint x="812" y="2364.33" as="sourcePoint" />
            <mxPoint x="973" y="2434.33" as="targetPoint" />
          </mxGeometry>
        </mxCell>
        <mxCell id="SnVRGUVNPOQiEE2IRUjc-316" value=":Member" style="ellipse;shape=umlEntity;whiteSpace=wrap;html=1;" parent="1" vertex="1">
          <mxGeometry x="1708.5" y="1460" width="91.5" height="90" as="geometry" />
        </mxCell>
        <mxCell id="SnVRGUVNPOQiEE2IRUjc-324" value="" style="endArrow=none;html=1;rounded=0;" parent="1" source="SnVRGUVNPOQiEE2IRUjc-316" target="SnVRGUVNPOQiEE2IRUjc-247" edge="1">
          <mxGeometry width="50" height="50" relative="1" as="geometry">
            <mxPoint x="1391" y="1468" as="sourcePoint" />
            <mxPoint x="1441" y="1418" as="targetPoint" />
          </mxGeometry>
        </mxCell>
        <mxCell id="SnVRGUVNPOQiEE2IRUjc-328" value=":Bike" style="ellipse;shape=umlEntity;whiteSpace=wrap;html=1;" parent="1" vertex="1">
          <mxGeometry x="1900" y="2014" width="90" height="86" as="geometry" />
        </mxCell>
        <mxCell id="SnVRGUVNPOQiEE2IRUjc-330" value="" style="endArrow=none;html=1;rounded=0;" parent="1" source="SnVRGUVNPOQiEE2IRUjc-298" target="SnVRGUVNPOQiEE2IRUjc-328" edge="1">
          <mxGeometry width="50" height="50" relative="1" as="geometry">
            <mxPoint x="1598.5" y="2053" as="sourcePoint" />
            <mxPoint x="1668.5" y="1979" as="targetPoint" />
          </mxGeometry>
        </mxCell>
        <mxCell id="aXq9pch4VxxMfmFHGzHm-1" value="2.1.1: Bike()" style="html=1;verticalAlign=bottom;endArrow=block;curved=0;rounded=0;" edge="1" parent="1">
          <mxGeometry x="0.1429" y="50" width="80" relative="1" as="geometry">
            <mxPoint x="1018" y="1350" as="sourcePoint" />
            <mxPoint x="1018" y="1420" as="targetPoint" />
            <Array as="points">
              <mxPoint x="1018" y="1350" />
            </Array>
            <mxPoint as="offset" />
          </mxGeometry>
        </mxCell>
        <mxCell id="aXq9pch4VxxMfmFHGzHm-2" value="2.1.1: addBike()" style="html=1;verticalAlign=bottom;endArrow=block;curved=0;rounded=0;" edge="1" parent="1">
          <mxGeometry x="0.25" y="-60" width="80" relative="1" as="geometry">
            <mxPoint x="1740" y="1360" as="sourcePoint" />
            <mxPoint x="1740" y="1440" as="targetPoint" />
            <Array as="points">
              <mxPoint x="1740" y="1360" />
            </Array>
            <mxPoint as="offset" />
          </mxGeometry>
        </mxCell>
        <mxCell id="aXq9pch4VxxMfmFHGzHm-4" value="" style="endArrow=none;html=1;rounded=0;" edge="1" parent="1" source="SnVRGUVNPOQiEE2IRUjc-316" target="SnVRGUVNPOQiEE2IRUjc-278">
          <mxGeometry width="50" height="50" relative="1" as="geometry">
            <mxPoint x="1808.63" y="1542" as="sourcePoint" />
            <mxPoint x="1858.63" y="1492" as="targetPoint" />
          </mxGeometry>
        </mxCell>
        <mxCell id="aXq9pch4VxxMfmFHGzHm-5" value="" style="endArrow=none;html=1;rounded=0;" edge="1" parent="1" source="SnVRGUVNPOQiEE2IRUjc-278" target="SnVRGUVNPOQiEE2IRUjc-247">
          <mxGeometry width="50" height="50" relative="1" as="geometry">
            <mxPoint x="1808.63" y="1410" as="sourcePoint" />
            <mxPoint x="1858.63" y="1360" as="targetPoint" />
          </mxGeometry>
        </mxCell>
        <mxCell id="aXq9pch4VxxMfmFHGzHm-6" value="2.1.2: getBikeDetails()" style="html=1;verticalAlign=bottom;endArrow=block;curved=0;rounded=0;" edge="1" parent="1">
          <mxGeometry x="1" y="50" width="80" relative="1" as="geometry">
            <mxPoint x="1837" y="1343" as="sourcePoint" />
            <mxPoint x="1880" y="1400" as="targetPoint" />
            <mxPoint as="offset" />
          </mxGeometry>
        </mxCell>
        <mxCell id="aXq9pch4VxxMfmFHGzHm-8" value="" style="endArrow=none;html=1;rounded=0;" edge="1" parent="1" source="SnVRGUVNPOQiEE2IRUjc-273" target="SnVRGUVNPOQiEE2IRUjc-328">
          <mxGeometry width="50" height="50" relative="1" as="geometry">
            <mxPoint x="1900" y="1885" as="sourcePoint" />
            <mxPoint x="1950" y="1835" as="targetPoint" />
          </mxGeometry>
        </mxCell>
        <mxCell id="aXq9pch4VxxMfmFHGzHm-10" value="2.1.2: *[For all member&#39;s bike]:&lt;div&gt;getBikeDetails()&lt;/div&gt;" style="html=1;verticalAlign=bottom;endArrow=block;curved=0;rounded=0;" edge="1" parent="1">
          <mxGeometry x="1" y="62" width="80" relative="1" as="geometry">
            <mxPoint x="1840" y="1876.5" as="sourcePoint" />
            <mxPoint x="1883" y="1933.5" as="targetPoint" />
            <mxPoint x="7" y="14" as="offset" />
          </mxGeometry>
        </mxCell>
        <mxCell id="aXq9pch4VxxMfmFHGzHm-11" value=":User" style="ellipse;shape=umlEntity;whiteSpace=wrap;html=1;" vertex="1" parent="1">
          <mxGeometry x="894" y="1950" width="91" height="90" as="geometry" />
        </mxCell>
        <mxCell id="aXq9pch4VxxMfmFHGzHm-12" value="" style="endArrow=none;html=1;rounded=0;" edge="1" parent="1" source="aXq9pch4VxxMfmFHGzHm-11" target="SnVRGUVNPOQiEE2IRUjc-265">
          <mxGeometry width="50" height="50" relative="1" as="geometry">
            <mxPoint x="939.25" y="1964" as="sourcePoint" />
            <mxPoint x="939.25" y="1835" as="targetPoint" />
          </mxGeometry>
        </mxCell>
        <mxCell id="aXq9pch4VxxMfmFHGzHm-13" value="2.1.1: getUserId()" style="html=1;verticalAlign=bottom;endArrow=block;curved=0;rounded=0;" edge="1" parent="1">
          <mxGeometry x="0.1429" y="50" width="80" relative="1" as="geometry">
            <mxPoint x="960.25" y="1864" as="sourcePoint" />
            <mxPoint x="960.25" y="1934" as="targetPoint" />
            <Array as="points">
              <mxPoint x="960.25" y="1864" />
            </Array>
            <mxPoint as="offset" />
          </mxGeometry>
        </mxCell>
      </root>
    </mxGraphModel>
  </diagram>
</mxfile>
